<?xml version="1.0" encoding="UTF-8" standalone="no"?>
<svg
   viewBox="0 0 79.010597 11.999977"
   version="1.1"
   id="svg11"
   sodipodi:docname="logo-horizontal-inverted.svg"
   width="79.010597"
   height="11.999977"
   inkscape:version="1.2.2 (732a01da63, 2022-12-09)"
   inkscape:export-filename="logo-horizontal.svg"
   inkscape:export-xdpi="96"
   inkscape:export-ydpi="96"
   xmlns:inkscape="http://www.inkscape.org/namespaces/inkscape"
   xmlns:sodipodi="http://sodipodi.sourceforge.net/DTD/sodipodi-0.dtd"
   xmlns="http://www.w3.org/2000/svg"
   xmlns:svg="http://www.w3.org/2000/svg">
  <defs
     id="defs15" />
  <sodipodi:namedview
     id="namedview13"
     pagecolor="#ffffff"
     bordercolor="#000000"
     borderopacity="0.25"
     inkscape:showpageshadow="2"
     inkscape:pageopacity="0.0"
     inkscape:pagecheckerboard="0"
     inkscape:deskcolor="#d1d1d1"
     showgrid="false"
     inkscape:zoom="22.627417"
     inkscape:cx="41.078485"
     inkscape:cy="10.562408"
     inkscape:window-width="2880"
     inkscape:window-height="1514"
     inkscape:window-x="2869"
     inkscape:window-y="-11"
     inkscape:window-maximized="1"
     inkscape:current-layer="g9" />
  <style
     id="style2">#text{fill:#000}@media (prefers-color-scheme:dark){#text{fill:#fff}}</style>
  <g
     id="g9"
     inkscape:label="logo-horizontal-inverted">
    <path
       d="m 78.911286,9.4208962 c -0.44318,1.7775968 -2.24359,2.8594178 -4.02139,2.4161338 -1.77708,-0.443181 -2.8589,-2.2436936 -2.41551,-4.0211864 0.44297,-1.777804 2.24338,-2.8597291 4.02066,-2.4165483 1.7777,0.4431807 2.85942,2.2439006 2.41624,4.0216009 z"
       fill="#f7931a"
       id="path4" />
    <path
       d="M 77.15509,8.1454813 C 77.22109,7.7039596 76.88497,7.466608 76.42531,7.3082699 l 0.14911,-0.598097 -0.36407,-0.090731 -0.14517,0.5823357 c -0.0957,-0.023849 -0.19401,-0.04635 -0.29169,-0.068644 L 75.9197,6.5469612 75.55585,6.4562302 75.40663,7.0541199 c -0.0792,-0.018042 -0.15699,-0.035878 -0.23248,-0.054646 l 4.2e-4,-0.00187 -0.50208,-0.125364 -0.0968,0.388846 c 0,0 0.27012,0.061904 0.26442,0.065741 0.14745,0.036811 0.1741,0.1343852 0.16964,0.2117396 -0.40855,1.6384415 0,0 -0.40855,1.6384415 -0.018,0.044795 -0.0638,0.1119877 -0.16684,0.086479 0.004,0.00529 -0.26462,-0.066052 -0.26462,-0.066052 L 73.989,9.6141742 74.46277,9.7322797 c 0.0881,0.022087 0.17452,0.04521 0.25954,0.066985 l -0.15066,0.6049413 0.36365,0.09073 0.14921,-0.5985126 c 0.0993,0.02696 0.19577,0.051846 0.29013,0.075281 l -0.14869,0.5957126 0.36406,0.09073 0.15067,-0.6038 c 0.6208,0.117484 1.08762,0.0701 1.28412,-0.4913975 0.15834,-0.4520983 -0.008,-0.7128844 -0.33451,-0.8829397 0.23787,-0.054853 0.41705,-0.2113248 0.46485,-0.5345336 z m -0.83182,1.1664343 c -0.1125,0.4520983 -0.87371,0.2076956 -1.1205,0.1464135 l 0.19992,-0.8014376 c 0.24679,0.061593 1.03817,0.1835353 0.92058,0.6550241 z M 76.43588,8.1389487 C 76.33323,8.5501922 75.69967,8.3412523 75.49415,8.2900283 L 75.6754,7.5631455 c 0.20552,0.051224 0.86739,0.1468282 0.76048,0.5758032 z"
       fill="#ffffff"
       id="path6" />
    <g
       aria-label="VENTUNO"
       transform="scale(0.99604192,1.0039738)"
       id="text474"
       style="font-size:16.152px;font-family:'The Bold Font';-inkscape-font-specification:'The Bold Font';fill:#ffffff;stroke-width:0.550636"
       inkscape:label="ventuno">
      <path
         d="M 7.5591362,0 H 10.450344 L 6.4123442,11.95248 H 3.8280241 L 2.3841858e-8,0 H 2.8750561 l 2.2774321,7.3330082 z"
         id="path1743" />
      <path
         d="m 18.757181,2.8266001 h -4.877904 v 1.792872 h 3.95724 v 2.7296881 h -3.95724 v 1.873632 h 4.877904 V 11.95248 H 11.149589 V 0.113064 l 7.607592,-0.016152 z"
         id="path1745" />
      <path
         d="m 26.994715,0.096912 h 2.729688 V 11.95248 H 26.768587 L 22.892107,5.0394241 V 11.95248 H 20.162419 V 0.129216 h 2.971968 l 3.860328,6.8969042 z"
         id="path1747" />
      <path
         d="M 38.026523,0.048456 V 2.7942961 H 35.749091 V 11.95248 H 33.019403 V 2.7942961 h -2.26128 V 0.048456 Z"
         id="path1749" />
      <path
         d="m 43.695875,11.95248 q -0.904512,0 -1.712112,-0.32304 -0.8076,-0.339192 -1.437528,-0.952968 -0.64608,-0.64608 -1.001424,-1.4536798 -0.339192,-0.8076 -0.355344,-1.728264 V 0.08076 h 2.729688 v 7.3976162 q 0,0.710688 0.533016,1.243704 0.533016,0.500712 1.259856,0.500712 0.355344,0 0.678384,-0.145368 0.32304,-0.145368 0.56532,-0.387648 0.24228,-0.24228 0.371496,-0.56532 0.129216,-0.32304 0.129216,-0.694536 V 0.08076 h 2.729688 v 7.3330082 q 0.01615,0.920664 -0.339192,1.744416 -0.339192,0.8237521 -0.952968,1.4375278 -0.597624,0.613776 -1.421376,0.985272 -0.8076,0.355344 -1.728264,0.371496 z"
         id="path1751" />
      <path
         d="m 56.649796,0.096912 h 2.729688 V 11.95248 H 56.423668 L 52.547188,5.0394241 V 11.95248 H 49.8175 V 0.129216 h 2.971968 l 3.860328,6.8969042 z"
         id="path1753" />
      <path
         d="m 66.001794,0.08076 q 1.227552,0 2.309736,0.46840801 1.082184,0.46840799 1.889784,1.27600799 0.8076,0.7914481 1.276008,1.8736321 0.468408,1.082184 0.468408,2.3097361 0,1.227552 -0.468408,2.309736 -0.468408,1.082184 -1.276008,1.8897838 -0.8076,0.791448 -1.889784,1.259856 -1.082184,0.468408 -2.309736,0.468408 -1.227552,0 -2.309736,-0.468408 -1.082184,-0.468408 -1.889784,-1.259856 -0.791448,-0.8075998 -1.259856,-1.8897838 -0.468408,-1.082184 -0.468408,-2.309736 0,-1.2275521 0.468408,-2.3097361 0.468408,-1.082184 1.259856,-1.8736321 0.8076,-0.8076 1.889784,-1.27600799 Q 64.774242,0.08076 66.001794,0.08076 Z m 0,9.1258802 q 0.662232,0 1.243704,-0.24228 0.581472,-0.258432 1.017576,-0.694536 0.436104,-0.436104 0.678384,-1.017576 0.258432,-0.581472 0.258432,-1.243704 0,-0.6622321 -0.258432,-1.2437041 -0.24228,-0.581472 -0.678384,-1.017576 -0.436104,-0.436104 -1.017576,-0.678384 -0.581472,-0.258432 -1.243704,-0.258432 -0.662232,0 -1.243704,0.258432 -0.581472,0.24228 -1.017576,0.678384 -0.436104,0.436104 -0.694536,1.017576 -0.24228,0.581472 -0.24228,1.2437041 0,0.662232 0.24228,1.243704 0.258432,0.581472 0.694536,1.017576 0.436104,0.436104 1.017576,0.694536 0.581472,0.24228 1.243704,0.24228 z"
         id="path1755" />
    </g>
  </g>
</svg>
