<?xml version="1.0" encoding="UTF-8" standalone="no"?>
<!-- Created with Inkscape (http://www.inkscape.org/) -->

<svg
   version="1.1"
   id="svg1"
   width="6329"
   height="3867"
   viewBox="0 0 6329 3867"
   sodipodi:docname="logo-square.svg"
   inkscape:export-filename="logo-square-inverted.svg"
   inkscape:export-xdpi="96"
   inkscape:export-ydpi="96"
   inkscape:version="1.3 (0e150ed, 2023-07-21)"
   xmlns:inkscape="http://www.inkscape.org/namespaces/inkscape"
   xmlns:sodipodi="http://sodipodi.sourceforge.net/DTD/sodipodi-0.dtd"
   xmlns="http://www.w3.org/2000/svg"
   xmlns:svg="http://www.w3.org/2000/svg">
  <defs
     id="defs1" />
  <sodipodi:namedview
     id="namedview1"
     pagecolor="#ffffff"
     bordercolor="#000000"
     borderopacity="0.25"
     inkscape:showpageshadow="2"
     inkscape:pageopacity="0.0"
     inkscape:pagecheckerboard="0"
     inkscape:deskcolor="#d1d1d1"
     showgrid="true"
     inkscape:zoom="0.125"
     inkscape:cx="2300"
     inkscape:cy="3032"
     inkscape:window-width="2160"
     inkscape:window-height="1363"
     inkscape:window-x="0"
     inkscape:window-y="1126"
     inkscape:window-maximized="1"
     inkscape:current-layer="g1">
    <inkscape:grid
       id="grid4"
       units="px"
       originx="0"
       originy="0"
       spacingx="1"
       spacingy="1"
       empcolor="#0099e5"
       empopacity="0.30196078"
       color="#0099e5"
       opacity="0.14901961"
       empspacing="5"
       dotted="false"
       gridanglex="30"
       gridanglez="30"
       visible="true" />
  </sodipodi:namedview>
  <g
     inkscape:groupmode="layer"
     inkscape:label="Image"
     id="g1"
     style="display:inline">
    <path
       d="m 4341.2461,1998.6406 a 951.53928,934.38727 0 0 0 -135.418,9.5098 951.53928,934.38727 0 0 0 -132.6601,28.3398 951.53928,934.38727 0 0 0 -127.2051,46.5879 951.53928,934.38727 0 0 0 -119.1563,63.8926 951.53928,934.38727 0 0 0 -108.6855,79.8945 951.53928,934.38727 0 0 0 -96,94.2696 951.53928,934.38727 0 0 0 -81.3594,106.7246 951.53928,934.38727 0 0 0 -65.0644,117.0097 951.53928,934.38727 0 0 0 -47.4453,124.9102 951.53928,934.38727 0 0 0 -28.8594,130.2715 951.53928,934.38727 0 0 0 -9.6856,132.9765 951.53928,934.38727 0 0 0 9.6856,132.9766 951.53928,934.38727 0 0 0 28.8594,130.2715 951.53928,934.38727 0 0 0 47.4453,124.9101 951.53928,934.38727 0 0 0 65.0644,117.0098 951.53928,934.38727 0 0 0 81.3594,106.7266 951.53928,934.38727 0 0 0 96,94.2676 951.53928,934.38727 0 0 0 108.6855,79.8945 951.53928,934.38727 0 0 0 119.1563,63.8926 951.53928,934.38727 0 0 0 127.2051,46.5898 951.53928,934.38727 0 0 0 132.6601,28.3379 951.53928,934.38727 0 0 0 135.418,9.5098 951.53928,934.38727 0 0 0 46.6914,-1.125 951.53928,934.38727 0 0 0 46.5762,-3.3731 951.53928,934.38727 0 0 0 46.3535,-5.6152 951.53928,934.38727 0 0 0 46.0156,-7.8399 951.53928,934.38727 0 0 0 45.5684,-10.0488 951.53928,934.38727 0 0 0 45.0136,-12.2324 951.53928,934.38727 0 0 0 44.3457,-14.3848 951.53928,934.38727 0 0 0 43.5743,-16.5058 951.53928,934.38727 0 0 0 42.6972,-18.586 951.53928,934.38727 0 0 0 41.7168,-20.6191 951.53928,934.38727 0 0 0 40.6367,-22.6055 951.53928,934.38727 0 0 0 39.459,-24.5371 951.53928,934.38727 0 0 0 38.1836,-26.4062 951.53928,934.38727 0 0 0 36.8184,-28.2168 951.53928,934.38727 0 0 0 35.3652,-29.9551 951.53928,934.38727 0 0 0 33.8242,-31.625 951.53928,934.38727 0 0 0 32.2051,-33.2149 951.53928,934.38727 0 0 0 30.5059,-34.7265 951.53928,934.38727 0 0 0 28.7343,-36.1563 951.53928,934.38727 0 0 0 26.8926,-37.4961 951.53928,934.38727 0 0 0 24.9864,-38.7461 951.53928,934.38727 0 0 0 23.0195,-39.9043 951.53928,934.38727 0 0 0 20.998,-40.9648 951.53928,934.38727 0 0 0 18.9278,-41.9277 951.53928,934.38727 0 0 0 16.8066,-42.7891 951.53928,934.38727 0 0 0 14.6504,-43.5469 951.53928,934.38727 0 0 0 12.457,-44.2011 951.53928,934.38727 0 0 0 10.2325,-44.7461 951.53928,934.38727 0 0 0 7.9843,-45.1875 951.53928,934.38727 0 0 0 5.7188,-45.5176 951.53928,934.38727 0 0 0 3.4355,-45.7383 951.53928,934.38727 0 0 0 1.1465,-45.8477 951.53928,934.38727 0 0 0 -1.1465,-45.8476 951.53928,934.38727 0 0 0 -3.4355,-45.7383 951.53928,934.38727 0 0 0 -5.7188,-45.5176 951.53928,934.38727 0 0 0 -7.9843,-45.1855 951.53928,934.38727 0 0 0 -10.2325,-44.7481 951.53928,934.38727 0 0 0 -12.457,-44.2011 951.53928,934.38727 0 0 0 -14.6484,-43.5469 951.53928,934.38727 0 0 0 -16.8086,-42.7891 951.53928,934.38727 0 0 0 -18.9278,-41.9277 951.53928,934.38727 0 0 0 -20.998,-40.9649 951.53928,934.38727 0 0 0 -23.0195,-39.9042 951.53928,934.38727 0 0 0 -24.9864,-38.7461 951.53928,934.38727 0 0 0 -26.8926,-37.4961 951.53928,934.38727 0 0 0 -28.7343,-36.1563 951.53928,934.38727 0 0 0 -30.5059,-34.7265 951.53928,934.38727 0 0 0 -32.2051,-33.2149 951.53928,934.38727 0 0 0 -33.8242,-31.625 951.53928,934.38727 0 0 0 -35.3652,-29.9551 951.53928,934.38727 0 0 0 -36.8184,-28.2148 951.53928,934.38727 0 0 0 -38.1836,-26.4082 951.53928,934.38727 0 0 0 -39.459,-24.5371 951.53928,934.38727 0 0 0 -40.6367,-22.6055 951.53928,934.38727 0 0 0 -41.7168,-20.6191 951.53928,934.38727 0 0 0 -42.6972,-18.586 951.53928,934.38727 0 0 0 -43.5743,-16.5058 951.53928,934.38727 0 0 0 -44.3457,-14.3848 951.53928,934.38727 0 0 0 -45.0136,-12.2324 951.53928,934.38727 0 0 0 -45.5684,-10.0488 951.53928,934.38727 0 0 0 -46.0156,-7.8399 951.53928,934.38727 0 0 0 -46.3535,-5.6152 951.53928,934.38727 0 0 0 -46.5762,-3.3731 951.53928,934.38727 0 0 0 -46.6914,-1.125 z m -1.1367,417.5489 a 506.36078,516.48004 0 0 1 24.8457,0.621 506.36078,516.48004 0 0 1 24.7851,1.8653 506.36078,516.48004 0 0 1 24.668,3.1035 506.36078,516.48004 0 0 1 24.4863,4.334 506.36078,516.48004 0 0 1 24.25,5.5547 506.36078,516.48004 0 0 1 23.9532,6.7597 506.36078,516.48004 0 0 1 23.5996,7.9532 506.36078,516.48004 0 0 1 23.1875,9.123 506.36078,516.48004 0 0 1 22.7207,10.2734 506.36078,516.48004 0 0 1 22.2011,11.3965 506.36078,516.48004 0 0 1 21.6231,12.4961 506.36078,516.48004 0 0 1 20.998,13.5625 506.36078,516.48004 0 0 1 20.3203,14.5957 506.36078,516.48004 0 0 1 19.5938,15.5957 506.36078,516.48004 0 0 1 18.8184,16.5586 506.36078,516.48004 0 0 1 18,17.4805 506.36078,516.48004 0 0 1 17.1367,18.3594 506.36078,516.48004 0 0 1 16.2343,19.1953 506.36078,516.48004 0 0 1 15.2911,19.9844 506.36078,516.48004 0 0 1 14.3105,20.7265 506.36078,516.48004 0 0 1 13.2969,21.416 506.36078,516.48004 0 0 1 12.25,22.0586 506.36078,516.48004 0 0 1 11.1738,22.6426 506.36078,516.48004 0 0 1 10.0723,23.1758 506.36078,516.48004 0 0 1 8.9433,23.6504 506.36078,516.48004 0 0 1 7.7969,24.0703 506.36078,516.48004 0 0 1 6.6289,24.4316 506.36078,516.48004 0 0 1 5.4453,24.7344 506.36078,516.48004 0 0 1 4.2481,24.9785 506.36078,516.48004 0 0 1 3.0429,25.1582 506.36078,516.48004 0 0 1 1.8282,25.2813 506.36078,516.48004 0 0 1 0.039,0.8164 506.36078,516.48004 0 0 1 0.037,0.8183 506.36078,516.48004 0 0 1 0.035,0.8164 506.36078,516.48004 0 0 1 0.035,0.8165 506.36078,516.48004 0 0 1 0.035,0.8183 506.36078,516.48004 0 0 1 0.031,0.8164 506.36078,516.48004 0 0 1 0.031,0.8164 506.36078,516.48004 0 0 1 0.029,0.8184 506.36078,516.48004 0 0 1 0.029,0.8164 506.36078,516.48004 0 0 1 0.027,0.8183 506.36078,516.48004 0 0 1 0.025,0.8165 506.36078,516.48004 0 0 1 0.025,0.8183 506.36078,516.48004 0 0 1 0.024,0.8184 506.36078,516.48004 0 0 1 0.021,0.8164 506.36078,516.48004 0 0 1 0.021,0.8183 506.36078,516.48004 0 0 1 0.02,0.8164 506.36078,516.48004 0 0 1 0.017,0.8184 506.36078,516.48004 0 0 1 0.018,0.8184 506.36078,516.48004 0 0 1 0.016,0.8164 506.36078,516.48004 0 0 1 0.016,0.8183 506.36078,516.48004 0 0 1 0.014,0.8184 506.36078,516.48004 0 0 1 0.012,0.8164 506.36078,516.48004 0 0 1 0.01,0.8184 506.36078,516.48004 0 0 1 0.01,0.8183 506.36078,516.48004 0 0 1 0.01,0.8184 506.36078,516.48004 0 0 1 0.01,0.8164 506.36078,516.48004 0 0 1 0.01,0.8183 506.36078,516.48004 0 0 1 0,0.8184 506.36078,516.48004 0 0 1 0,0.8164 506.36078,516.48004 0 0 1 0,0.8184 506.36078,516.48004 0 0 1 0,0.8183 506.36078,516.48004 0 0 1 -0.01,2.3789 506.36078,516.48004 0 0 1 -0.016,2.3789 506.36078,516.48004 0 0 1 -0.027,2.3789 506.36078,516.48004 0 0 1 -0.037,2.3789 506.36078,516.48004 0 0 1 -0.049,2.379 506.36078,516.48004 0 0 1 -0.059,2.3789 506.36078,516.48004 0 0 1 -0.07,2.3769 506.36078,516.48004 0 0 1 -0.08,2.3789 506.36078,516.48004 0 0 1 -0.092,2.377 506.36078,516.48004 0 0 1 -0.1016,2.3769 506.36078,516.48004 0 0 1 -0.1113,2.375 506.36078,516.48004 0 0 1 -0.125,2.377 506.36078,516.48004 0 0 1 -0.1328,2.375 506.36078,516.48004 0 0 1 -0.1465,2.375 506.36078,516.48004 0 0 1 -0.1543,2.373 506.36078,516.48004 0 0 1 -0.166,2.3731 506.36078,516.48004 0 0 1 -0.1777,2.373 506.36078,516.48004 0 0 1 -0.1875,2.3711 506.36078,516.48004 0 0 1 -0.1993,2.3692 506.36078,516.48004 0 0 1 -0.2089,2.371 506.36078,516.48004 0 0 1 -0.2207,2.3672 506.36078,516.48004 0 0 1 -0.2305,2.3672 506.36078,516.48004 0 0 1 -0.2402,2.3672 506.36078,516.48004 0 0 1 -0.252,2.3652 506.36078,516.48004 0 0 1 -0.2637,2.3633 506.36078,516.48004 0 0 1 -0.2715,2.3633 506.36078,516.48004 0 0 1 -0.2851,2.3613 506.36078,516.48004 0 0 1 -0.2949,2.3594 506.36078,516.48004 0 0 1 -0.3047,2.3594 506.36078,516.48004 0 0 1 -0.3164,2.3574 506.36078,516.48004 0 0 1 -0.3262,2.3555 506.36078,516.48004 0 0 1 -15.3574,72.0058 506.36078,516.48004 0 0 1 -25.2481,69.045 506.36078,516.48004 0 0 1 -34.625,64.6757 506.36078,516.48004 0 0 1 -43.2949,58.9942 506.36078,516.48004 0 0 1 -51.0859,52.1054 506.36078,516.48004 0 0 1 -57.836,44.1622 506.36078,516.48004 0 0 1 -63.4101,35.3164 506.36078,516.48004 0 0 1 -67.6914,25.7519 506.36078,516.48004 0 0 1 -70.5957,15.6641 506.36078,516.48004 0 0 1 -72.0625,5.2558 506.36078,516.48004 0 0 1 -72.0625,-5.2558 506.36078,516.48004 0 0 1 -70.5957,-15.6641 506.36078,516.48004 0 0 1 -67.6914,-25.7519 506.36078,516.48004 0 0 1 -63.4102,-35.3164 506.36078,516.48004 0 0 1 -57.8359,-44.1622 506.36078,516.48004 0 0 1 -51.086,-52.1054 506.36078,516.48004 0 0 1 -43.2968,-58.9942 506.36078,516.48004 0 0 1 -34.6231,-64.6757 506.36078,516.48004 0 0 1 -25.248,-69.045 506.36078,516.48004 0 0 1 -15.3575,-72.0058 506.36078,516.48004 0 0 1 -5.1543,-73.502 506.36078,516.48004 0 0 1 5.1543,-73.5039 506.36078,516.48004 0 0 1 15.3575,-72.0058 506.36078,516.48004 0 0 1 25.248,-69.045 506.36078,516.48004 0 0 1 34.6231,-64.6757 506.36078,516.48004 0 0 1 43.2968,-58.9922 506.36078,516.48004 0 0 1 51.086,-52.1075 506.36078,516.48004 0 0 1 57.8359,-44.1621 506.36078,516.48004 0 0 1 63.4102,-35.3144 506.36078,516.48004 0 0 1 67.6914,-25.7539 506.36078,516.48004 0 0 1 70.5957,-15.6641 506.36078,516.48004 0 0 1 72.0625,-5.2558 z"
       style="stroke-width:0.988809;fill:#000000"
       id="path13" />
    <path
       style="fill:#000000;stroke:none;fill-opacity:1;stroke-opacity:0.04848948"
       d="M -0.12335853,-0.1985268 612.82061,1863.0484 1026.2256,1862.9324 1672.4924,-0.07926124 1209.9527,0.17392153 824.91604,1142.6199 459.99808,-0.00499832 Z"
       id="path7" />
    <path
       style="fill:#000000;fill-opacity:1;stroke:none;stroke-opacity:0.0484895"
       d="M 1738.0087,17.843326 V 1862.3484 h 1217.0565 v -424.4833 h -781.0696 v -292.8474 h 633.5866 V 720.32649 H 2174.0376 V 440.01503 h 780.7147 V 15.501902 Z"
       id="path8" />
    <path
       style="fill:#000000;fill-opacity:1;stroke:none;stroke-opacity:0.0484895"
       d="M 3258.1226,20.041016 V 1862.3797 h 436.8205 V 785.09339 l 622.1435,1077.58411 h 471.67 V 15.67622 h -436.442 V 1095.0664 L 3731.4197,19.644938 Z"
       id="path9" />
    <path
       style="display:inline;fill:#000000;fill-opacity:1;stroke:none;stroke-opacity:0.0484895"
       d="M 1723.3234,2024.6413 V 3866.98 h 436.8205 V 2789.6937 l 622.1435,1077.5841 h 471.67 V 2020.2765 h -436.442 V 3099.6667 L 2196.6205,2024.2453 Z"
       id="path9-1" />
    <path
       style="fill:#000000;fill-opacity:1;stroke:none;stroke-opacity:0.0484895"
       d="M 5032.8058,8.0254289 V 435.18112 h 361.3998 V 1862.4085 h 436.5889 V 435.00622 h 364.0384 V 7.9987493 Z"
       id="path10" />
    <path
       style="fill:#000000;fill-opacity:1;stroke:none;stroke-opacity:0.0484895"
       d="M -0.04353061,2004.9879 H 426.79117 c 0,0 -1.27584,1132.0633 0,1165.1826 0.55375,14.3747 2.76877,35.9608 6.48269,53.5551 3.00574,14.2394 7.28327,28.2658 12.7188,41.7658 4.45063,11.0538 10.20306,21.5691 16.18818,31.8732 4.57097,7.8694 9.71292,15.406 15.01912,22.7996 5.89556,8.2149 12.04056,16.2723 18.6578,23.9178 5.80204,6.7036 11.90293,13.1742 18.40779,19.1983 9.13498,8.4598 18.73082,16.4723 28.86266,23.7084 9.7578,6.969 20.02766,13.259 30.61646,18.8856 10.67501,5.6724 21.71941,10.7173 33.05205,14.9249 12.53803,4.6551 25.39499,8.6018 38.48341,11.3524 16.31466,3.4286 33.00333,4.8654 49.60765,6.3553 3.93661,0.3532 7.88911,0.6196 11.84153,0.6111 7.32421,-0.016 14.64628,-0.5418 21.93844,-1.2264 10.36581,-0.9732 20.78025,-1.9313 30.96503,-4.0917 13.14168,-2.7877 26.08901,-6.6518 38.65753,-11.396 12.46857,-4.7064 24.4876,-10.5992 36.25517,-16.8554 10.7956,-5.7394 21.41119,-11.9029 31.42047,-18.9243 10.03951,-7.0426 19.64173,-14.7712 28.57573,-23.172 10.84379,-10.1966 21.09722,-21.1161 30.20377,-32.8902 9.71189,-12.5568 18.53454,-25.908 25.85184,-39.9953 6.67912,-12.8586 11.65045,-26.5743 16.29777,-40.2986 3.07755,-9.0885 5.65408,-18.3662 7.64174,-27.7535 2.97228,-14.0375 5.12978,-28.2769 6.37439,-42.5715 0.27916,-3.2062 0.20168,-6.434 0.24202,-9.6521 4.86995,-388.5016 0,-1165.5965 0,-1165.5965 h 427.67749 c 0,0 4.7048,783.6315 0,1175.4049 -0.062,5.1382 -0.1531,10.2772 -0.3702,15.4112 -0.2474,5.8508 -0.5875,11.6992 -1.0625,17.536 -1.3757,16.9048 -2.7161,33.8368 -5.1754,50.6182 -2.7643,18.8627 -6.172,37.6669 -10.7529,56.1725 -7.0388,28.4347 -15.5274,56.5638 -25.6502,84.052 -7.6208,20.6941 -16.5938,40.9064 -26.341,60.688 -14.821,30.0788 -29.6737,60.42 -48.7698,87.9833 -30.3139,43.7551 -64.5385,85.3534 -103.5603,121.5575 -43.0023,39.8972 -90.9725,75.0608 -142.1194,103.7833 -51.93532,29.1652 -107.50617,53.16 -165.09578,68.3693 -58.40939,15.4258 -119.44139,23.0845 -179.84927,22.3774 -68.86307,-0.8061 -138.55714,-10.015 -204.36914,-30.3018 -63.07894,-19.4443 -123.35897,-49.6026 -178.23855,-86.2804 -56.49175,-37.7553 -107.80892,-84.1444 -152.2381,-135.5529 -38.83765,-44.9386 -72.545376,-95.1593 -97.962678,-148.8417 -26.767326,-56.5337 -43.31951,-117.8627 -55.86914,-179.1412 -7.6408291,-37.3094 -13.6355799,-75.6317 -11.59865615,-113.6609 7.27527855,-135.8288 0.14878354,-1169.8813 0.14878354,-1169.8813 z"
       id="path11"
       sodipodi:nodetypes="ccsaaaaaaaaaaaaaaaaaaaaaaaaccaaaaaaaaaaaaaaaaasc" />
    <path
       d="m 6313.845,3473.9766 c -69.4545,277.8878 -351.598,447.003 -630.1998,377.703 -278.4921,-69.2843 -448.0226,-350.7521 -378.5367,-628.6242 69.4232,-277.9192 351.5667,-447.0498 630.0744,-377.7655 278.5861,69.2843 448.1166,350.7834 378.6621,628.6867 z"
       fill="#f7931a"
       id="path1"
       style="stroke-width:156.52" />
    <path
       d="m 6038.6596,3274.5965 c 10.3429,-69.0185 -42.3436,-106.1307 -114.3681,-130.8773 l 23.3657,-93.4995 -57.0587,-14.2258 -22.7545,91.0451 c -15.0443,-3.7518 -30.402,-7.1911 -45.6971,-10.7866 l 22.9111,-91.6235 -57.0273,-14.2259 -23.3812,93.4684 c -12.3803,-2.814 -24.6038,-5.6278 -36.4355,-8.5983 h 0.063 l -78.6692,-19.6034 -15.201,60.7958 c 0,0 42.3278,9.6923 41.4346,10.3176 23.0993,5.7842 27.2835,21.0105 26.5782,33.1102 -64.0166,256.127 0,0 -64.0166,256.127 -2.8209,7.0348 -10.0296,17.5088 -26.1552,13.4442 0,1.5633 -41.4658,-10.3176 -41.4658,-10.3176 l -28.3178,65.1573 74.2341,18.4624 c 13.7907,3.4391 27.3619,7.0348 40.6825,10.4738 l -23.6165,94.5626 56.996,14.2258 23.3813,-93.5621 c 15.5145,4.2209 30.6685,8.1292 45.4621,11.7246 l -23.303,93.1243 57.0587,14.2259 23.6008,-94.3907 c 97.2864,18.3685 170.4552,10.943 201.2489,-76.8192 24.8074,-70.6601 -1.5671,-111.4304 -52.42,-138.0216 37.266,-8.5981 65.3487,-33.032 72.8395,-83.5571 z m -130.3683,182.3404 c -17.6301,70.6758 -136.9189,32.4693 -175.5953,22.8865 l 31.3422,-125.281 c 38.6608,9.6924 162.6824,28.686 144.2531,102.3945 z m 17.6458,-183.3722 c -16.0788,64.2977 -115.3712,31.6408 -147.5754,23.6212 l 28.4117,-113.6345 c 32.2042,7.9727 135.9317,22.9645 119.1637,90.0133 z"
       fill="#ffffff"
       id="path2-6"
       style="stroke-width:156.52" />
  </g>
</svg>
