<?xml version="1.0" encoding="UTF-8" standalone="no"?>
<svg
   viewBox="0 0 85.199996 12"
   version="1.1"
   id="svg3"
   width="85.199997"
   height="12"
   xmlns="http://www.w3.org/2000/svg"
   xmlns:svg="http://www.w3.org/2000/svg">
  <defs
     id="defs3" />
  <g
     id="g3"
     transform="translate(-48.795496)">
    <path
       d="m 133.83629,9.4208962 c -0.44318,1.7775968 -2.24359,2.8594178 -4.02139,2.4161338 -1.77708,-0.443181 -2.8589,-2.2436936 -2.41551,-4.0211864 0.44297,-1.777804 2.24338,-2.8597291 4.02066,-2.4165483 1.7777,0.4431807 2.85942,2.2439006 2.41624,4.0216009 z"
       fill="#f7931a"
       id="path1" />
    <path
       d="m 132.08026,8.1454813 c 0.066,-0.4415217 -0.27012,-0.6788733 -0.72978,-0.8372114 l 0.14911,-0.598097 -0.36407,-0.090731 -0.14517,0.5823357 c -0.0957,-0.023849 -0.19401,-0.04635 -0.29169,-0.068644 l 0.14621,-0.5861724 -0.36385,-0.090731 -0.14922,0.5978897 c -0.0792,-0.018042 -0.15699,-0.035878 -0.23248,-0.054646 l 4.2e-4,-0.00187 -0.50208,-0.125364 -0.0968,0.388846 c 0,0 0.27012,0.061904 0.26442,0.065741 0.14745,0.036811 0.1741,0.1343852 0.16964,0.2117396 -0.40855,1.6384415 0,0 -0.40855,1.6384415 -0.018,0.044795 -0.0638,0.1119877 -0.16684,0.086479 0.004,0.00529 -0.26462,-0.066052 -0.26462,-0.066052 l -0.18074,0.4167392 0.47377,0.1181055 c 0.0881,0.022087 0.17452,0.04521 0.25954,0.066985 l -0.15066,0.6049413 0.36365,0.09073 0.14921,-0.5985126 c 0.0993,0.02696 0.19577,0.051846 0.29013,0.075281 l -0.14869,0.5957126 0.36406,0.09073 0.15067,-0.6038 c 0.6208,0.117484 1.08762,0.0701 1.28412,-0.4913975 0.15834,-0.4520983 -0.008,-0.7128844 -0.33451,-0.8829397 0.23787,-0.054853 0.41705,-0.2113248 0.46485,-0.5345336 z m -0.83182,1.1664343 c -0.1125,0.4520983 -0.87371,0.2076956 -1.1205,0.1464135 l 0.19992,-0.8014376 c 0.24679,0.061593 1.03817,0.1835353 0.92058,0.6550241 z m 0.11261,-1.1729669 c -0.10265,0.4112435 -0.73621,0.2023036 -0.94173,0.1510796 l 0.18125,-0.7268828 c 0.20552,0.051224 0.86739,0.1468282 0.76048,0.5758032 z"
       fill="#fff"
       id="path2" />
    <path
       id="path3"
       style="display:inline"
       d="M 48.799402 0.04296875 L 52.756433 11.947266 L 55.125574 11.947266 L 58.643152 0.04296875 L 55.774012 0.04296875 L 53.861902 6.5839844 L 51.686121 0.04296875 L 48.799402 0.04296875 z M 67.709558 0.04296875 L 60.07284 0.060546875 L 60.07284 11.947266 L 67.709558 11.947266 L 67.709558 9.2050781 L 62.813074 9.2050781 L 62.813074 7.3242188 L 66.78573 7.3242188 L 66.78573 4.5839844 L 62.813074 4.5839844 L 62.813074 2.7832031 L 67.709558 2.7832031 L 67.709558 0.04296875 z M 76.738855 0.04296875 L 76.738855 7 L 72.861902 0.076171875 L 69.87948 0.076171875 L 69.87948 11.947266 L 72.619715 11.947266 L 72.619715 5.0058594 L 76.51034 11.947266 L 79.47909 11.947266 L 79.47909 0.04296875 L 76.738855 0.04296875 z M 81.383387 0.04296875 L 81.383387 2.8007812 L 84.590418 2.8007812 L 84.527918 11.947266 L 87.342371 11.947266 L 87.342371 2.8007812 L 90.303308 2.8007812 L 90.303308 0.060546875 L 81.383387 0.04296875 z M 92.289637 0.04296875 L 92.289637 7.4863281 C 92.300447 8.1025431 92.422438 8.6821169 92.654871 9.2226562 C 92.887303 9.7631957 93.220486 10.249209 93.652918 10.681641 C 94.074538 11.09245 94.555739 11.409239 95.096277 11.630859 C 95.636818 11.85248 96.209624 11.962841 96.815027 11.962891 L 96.863855 11.962891 C 97.480071 11.952081 98.060097 11.825274 98.606043 11.582031 C 99.151985 11.338788 99.62834 11.01042 100.03378 10.599609 C 100.43919 10.1888 100.75838 9.7076001 100.99081 9.15625 C 101.22324 8.6048998 101.33365 8.022465 101.32284 7.40625 L 101.32284 0.04296875 L 98.582605 0.04296875 L 98.582605 7.421875 C 98.582605 7.6705232 98.538236 7.9029248 98.451746 8.1191406 C 98.365256 8.3353564 98.240861 8.5253383 98.078699 8.6875 C 97.916537 8.8496619 97.728509 8.9788748 97.512293 9.0761719 C 97.296076 9.1734687 97.068489 9.2226563 96.830652 9.2226562 C 96.344167 9.2226562 95.923736 9.0538845 95.56698 8.71875 C 95.210225 8.361994 95.031824 7.9463778 95.031824 7.4707031 L 95.031824 0.04296875 L 92.289637 0.04296875 z M 110.2369 0.04296875 L 110.2369 7 L 106.3619 0.076171875 L 103.37753 0.076171875 L 103.37753 11.947266 L 106.11776 11.947266 L 106.11776 5.0058594 L 110.01034 11.947266 L 112.97714 11.947266 L 112.97714 0.04296875 L 110.2369 0.04296875 z M 120.28768 0.04296875 C 119.52011 0.04296875 118.76891 0.19053066 118.03378 0.48242188 C 117.29864 0.77431318 116.63904 1.2111394 116.05526 1.7949219 C 115.47148 2.3787045 115.03511 3.0383038 114.74862 3.7734375 C 114.46214 4.5085713 114.31893 5.2597776 114.31893 6.0273438 C 114.31893 6.7949097 114.46214 7.5437092 114.74862 8.2734375 C 115.03511 9.0031659 115.47148 9.6603574 116.05526 10.244141 C 116.63904 10.827923 117.29864 11.26475 118.03378 11.556641 C 118.76891 11.848531 119.52037 11.974047 120.28768 11.994141 C 121.05498 11.974047 121.80646 11.852439 122.54159 11.560547 C 123.27673 11.268656 123.93633 10.831829 124.52011 10.248047 C 125.10387 9.6642644 125.5383 9.0070712 125.82479 8.2773438 C 126.11127 7.5476152 126.25643 6.7988154 126.25643 6.03125 C 126.25643 5.2636836 126.11127 4.5124772 125.82479 3.7773438 C 125.5383 3.0422096 125.10387 2.3826107 124.52011 1.7988281 C 123.93633 1.2150456 123.27673 0.77821944 122.54159 0.48632812 C 121.80646 0.19443692 121.05525 0.044921875 120.28768 0.044921875 L 120.28768 0.04296875 z M 120.28768 2.8007812 C 120.69849 2.8007813 121.10448 2.8823061 121.50448 3.0390625 C 121.90448 3.1958188 122.26128 3.432581 122.57479 3.7460938 C 122.88831 4.059607 123.12552 4.416407 123.28768 4.8164062 C 123.44982 5.2164056 123.53182 5.6204398 123.53182 6.03125 C 123.53182 6.4420592 123.44984 6.8480477 123.28768 7.2480469 C 123.12552 7.6480461 122.88831 8.004847 122.57479 8.3183594 C 122.29371 8.5994398 121.97692 8.8178526 121.62557 8.9746094 C 121.27421 9.131366 120.66065 9.2190638 120.28768 9.2460938 C 119.91471 9.2190668 119.30115 9.1274597 118.94979 8.9707031 C 118.59844 8.8139467 118.28165 8.5955335 118.00057 8.3144531 C 117.68705 8.0009402 117.44984 7.6441398 117.28768 7.2441406 C 117.12552 6.8441414 117.04354 6.4381536 117.04354 6.0273438 C 117.04354 5.6165338 117.12554 5.2105461 117.28768 4.8105469 C 117.44984 4.4105477 117.68705 4.0537473 118.00057 3.7402344 C 118.31408 3.4267215 118.67089 3.1919127 119.07089 3.0351562 C 119.47089 2.8783998 119.87687 2.8007813 120.28768 2.8007812 z " fill="#000" />
  </g>
</svg>
